<svg width="2016" height="2736" viewBox="0 0 2016 2736" fill="none" xmlns="http://www.w3.org/2000/svg">
<g clip-path="url(#clip0)">
<path d="M1724.8 84.0001C1761.83 84.0001 1789.36 84.0032 1811.17 85.7852C1832.94 87.5634 1848.65 91.0929 1862.11 97.9512C1886.2 110.223 1905.78 129.805 1918.05 153.889C1924.91 167.35 1928.44 183.065 1930.21 204.828C1932 226.639 1932 254.171 1932 291.2L1932 2444.8C1932 2481.83 1932 2509.36 1930.21 2531.17C1928.44 2552.94 1924.91 2568.65 1918.05 2582.11C1905.78 2606.2 1886.2 2625.78 1862.11 2638.05C1848.65 2644.91 1832.94 2648.44 1811.17 2650.21C1789.36 2652 1761.83 2652 1724.8 2652H291.2C254.17 2652 226.639 2652 204.828 2650.21C183.064 2648.44 167.349 2644.91 153.889 2638.05C129.804 2625.78 110.223 2606.2 97.9511 2582.11C91.0928 2568.65 87.5633 2552.94 85.7851 2531.17C84.0031 2509.36 84 2481.83 84 2444.8L84.0001 291.2C84.0001 254.17 84.0032 226.639 85.7852 204.828C87.5634 183.064 91.0929 167.35 97.9512 153.889C110.223 129.804 129.805 110.223 153.889 97.9512C167.35 91.0928 183.065 87.5633 204.828 85.7851C226.639 84.0031 254.171 84 291.2 84L1724.8 84.0001ZM1825.25 174.142C1820.96 171.954 1816.17 170.96 1810.26 170.477C1804.42 170 1797.15 170 1787.78 170H1787.6L228.4 170H228.218C218.851 170 211.576 170 205.743 170.477C199.826 170.96 195.043 171.954 190.748 174.142C183.598 177.785 177.785 183.598 174.142 190.748C171.954 195.043 170.96 199.826 170.477 205.743C170 211.576 170 218.851 170 228.218V228.4L170 2507.6V2507.78C170 2517.15 170 2524.42 170.477 2530.26C170.96 2536.17 171.954 2540.96 174.142 2545.25C177.785 2552.4 183.598 2558.22 190.748 2561.86C195.043 2564.05 199.826 2565.04 205.743 2565.52C211.575 2566 218.849 2566 228.215 2566H228.4H1787.6H1787.79C1797.15 2566 1804.42 2566 1810.26 2565.52C1816.17 2565.04 1820.96 2564.05 1825.25 2561.86C1832.4 2558.22 1838.22 2552.4 1841.86 2545.25C1844.05 2540.96 1845.04 2536.17 1845.52 2530.26C1846 2524.42 1846 2517.15 1846 2507.78V2507.6L1846 228.4V228.222C1846 218.853 1846 211.576 1845.52 205.743C1845.04 199.826 1844.05 195.043 1841.86 190.748C1838.22 183.598 1832.4 177.785 1825.25 174.142Z" stroke="black" stroke-width="8"/>
<path d="M1937.2 288C1938.88 288 1939.72 288 1940.36 288.327C1940.93 288.615 1941.39 289.074 1941.67 289.638C1942 290.28 1942 291.12 1942 292.8L1942 387.2C1942 388.88 1942 389.72 1941.67 390.362C1941.39 390.927 1940.93 391.386 1940.36 391.673C1939.72 392 1938.88 392 1937.2 392L1936 392L1936 288L1937.2 288Z" fill="black"/>
<path d="M1671 78.8001C1671 77.12 1671 76.2799 1671.33 75.6382C1671.61 75.0737 1672.07 74.6147 1672.64 74.3271C1673.28 74.0001 1674.12 74.0001 1675.8 74.0001H1786.2C1787.88 74.0001 1788.72 74.0001 1789.36 74.3271C1789.93 74.6147 1790.39 75.0737 1790.67 75.6382C1791 76.2799 1791 77.12 1791 78.8001V81.0001H1671V78.8001Z" fill="black"/>
<path d="M1937.2 412C1938.88 412 1939.72 412 1940.36 412.327C1940.93 412.615 1941.39 413.074 1941.67 413.638C1942 414.28 1942 415.12 1942 416.8L1942 511.2C1942 512.88 1942 513.72 1941.67 514.362C1941.39 514.927 1940.93 515.386 1940.36 515.673C1939.72 516 1938.88 516 1937.2 516L1936 516L1936 412L1937.2 412Z" fill="black"/>
<circle cx="1008" cy="133" r="13" transform="rotate(90 1008 133)" fill="black"/>
</g>
<defs>
<clipPath id="clip0">
<rect width="2736" height="2016" fill="white" transform="translate(2016 0.00012207) rotate(90)"/>
</clipPath>
</defs>
</svg>
