<svg width="1439" height="2750" viewBox="0 0 1439 2750" fill="none" xmlns="http://www.w3.org/2000/svg">
<path d="M84 387.2C84 333.369 84.0031 293.236 86.6026 261.42C89.1982 229.651 94.3626 206.527 104.491 186.65C122.515 151.275 151.275 122.515 186.65 104.491C206.527 94.3626 229.651 89.1982 261.421 86.6026C293.236 84.0031 333.369 84 387.2 84H1051.8C1105.63 84 1145.76 84.0031 1177.58 86.6026C1209.35 89.1982 1232.47 94.3626 1252.35 104.491C1287.72 122.515 1316.48 151.275 1334.51 186.65C1344.64 206.527 1349.8 229.651 1352.4 261.421C1355 293.236 1355 333.369 1355 387.2V2362.8C1355 2416.63 1355 2456.76 1352.4 2488.58C1349.8 2520.35 1344.64 2543.47 1334.51 2563.35C1316.48 2598.72 1287.72 2627.49 1252.35 2645.51C1232.47 2655.64 1209.35 2660.8 1177.58 2663.4C1145.76 2666 1105.63 2666 1051.8 2666H387.2C333.369 2666 293.236 2666 261.421 2663.4C229.651 2660.8 206.527 2655.64 186.65 2645.51C151.275 2627.49 122.515 2598.72 104.491 2563.35C94.3626 2543.47 89.1982 2520.35 86.6026 2488.58C84.0031 2456.76 84 2416.63 84 2362.8V387.2ZM166.297 219.613C159.531 232.892 156.249 248.048 154.621 267.972C153 287.812 153 312.727 153 345.611V345.8V2404.2V2404.39C153 2437.27 153 2462.19 154.621 2482.03C156.249 2501.95 159.531 2517.11 166.297 2530.39C177.994 2553.34 196.657 2572.01 219.613 2583.7C232.892 2590.47 248.048 2593.75 267.972 2595.38C287.811 2597 312.726 2597 345.607 2597H345.8H1093.2H1093.39C1126.27 2597 1151.19 2597 1171.03 2595.38C1190.95 2593.75 1206.11 2590.47 1219.39 2583.7C1242.34 2572.01 1261.01 2553.34 1272.7 2530.39C1279.47 2517.11 1282.75 2501.95 1284.38 2482.03C1286 2462.19 1286 2437.27 1286 2404.39V2404.2V345.8V345.615C1286 312.729 1286 287.812 1284.38 267.972C1282.75 248.048 1279.47 232.892 1272.7 219.613C1261.01 196.657 1242.34 177.994 1219.39 166.297C1206.11 159.531 1190.95 156.249 1171.03 154.621C1151.19 153 1126.27 153 1093.39 153H1093.2H1053C1039.75 153 1029 163.745 1029 177C1029 182.643 1029 185.247 1028.84 187.414C1026.65 217.07 1003.07 240.65 973.414 242.837C971.247 242.997 968.643 243 963 243H477C471.357 243 468.753 242.997 466.586 242.837C436.93 240.65 413.35 217.07 411.163 187.414C411.003 185.247 411 182.643 411 177C411 163.745 400.255 153 387 153H345.8H345.611C312.728 153 287.812 153 267.972 154.621C248.048 156.249 232.892 159.531 219.613 166.297C196.657 177.994 177.994 196.657 166.297 219.613Z" stroke="black" stroke-width="8"/>
<rect x="642" y="173" width="156" height="20" rx="10" fill="black"/>
<path d="M1359 734H1360.6C1362.84 734 1363.96 734 1364.82 734.436C1365.57 734.819 1366.18 735.431 1366.56 736.184C1367 737.04 1367 738.16 1367 740.4V1029.6C1367 1031.84 1367 1032.96 1366.56 1033.82C1366.18 1034.57 1365.57 1035.18 1364.82 1035.56C1363.96 1036 1362.84 1036 1360.6 1036H1359V734Z" fill="black"/>
<path d="M72 916.4C72 914.16 72 913.04 72.436 912.184C72.8195 911.431 73.4314 910.819 74.184 910.436C75.0397 910 76.1598 910 78.4 910H80V1100H78.4C76.1598 1100 75.0397 1100 74.184 1099.56C73.4314 1099.18 72.8195 1098.57 72.436 1097.82C72 1096.96 72 1095.84 72 1093.6V916.4Z" fill="black"/>
<path d="M72 676.4C72 674.16 72 673.04 72.436 672.184C72.8195 671.431 73.4314 670.819 74.184 670.436C75.0397 670 76.1598 670 78.4 670H80V860H78.4C76.1598 860 75.0397 860 74.184 859.564C73.4314 859.181 72.8195 858.569 72.436 857.816C72 856.96 72 855.84 72 853.6V676.4Z" fill="black"/>
<path d="M72 476.4C72 474.16 72 473.04 72.436 472.184C72.8195 471.431 73.4314 470.819 74.184 470.436C75.0397 470 76.1598 470 78.4 470H80V570H78.4C76.1598 570 75.0397 570 74.184 569.564C73.4314 569.181 72.8195 568.569 72.436 567.816C72 566.96 72 565.84 72 563.6V476.4Z" fill="black"/>
<circle cx="857" cy="183" r="19" fill="black"/>
</svg>
