<svg width="1344" height="2652" viewBox="0 0 1344 2652" fill="none" xmlns="http://www.w3.org/2000/svg">
<path d="M84 331.6C84 283.076 84.0042 246.964 86.7082 218.525C89.4065 190.145 94.7651 169.821 105.22 152.76C117.093 133.384 133.384 117.093 152.76 105.22C169.821 94.7651 190.145 89.4065 218.525 86.7082C246.964 84.0042 283.076 84 331.6 84H1012.4C1060.92 84 1097.04 84.0042 1125.48 86.7082C1153.85 89.4065 1174.18 94.7651 1191.24 105.22C1210.62 117.093 1226.91 133.384 1238.78 152.76C1249.23 169.821 1254.59 190.145 1257.29 218.525C1260 246.964 1260 283.076 1260 331.6V2320.4C1260 2368.92 1260 2405.04 1257.29 2433.48C1254.59 2461.85 1249.23 2482.18 1238.78 2499.24C1226.91 2518.62 1210.62 2534.91 1191.24 2546.78C1174.18 2557.23 1153.85 2562.59 1125.48 2565.29C1097.04 2568 1060.92 2568 1012.4 2568H331.6C283.076 2568 246.963 2568 218.525 2565.29C190.145 2562.59 169.821 2557.23 152.76 2546.78C133.384 2534.91 117.093 2518.62 105.22 2499.24C94.7651 2482.18 89.4065 2461.85 86.7082 2433.48C84.0042 2405.04 84 2368.92 84 2320.4V331.6ZM143.325 189.66C135.508 202.418 131.73 217.298 129.86 236.963C128 256.525 128 281.232 128 313.779V314V2314V2314.22C128 2346.77 128 2371.47 129.86 2391.04C131.73 2410.7 135.508 2425.58 143.325 2438.34C151.901 2452.33 163.666 2464.1 177.66 2472.67C190.418 2480.49 205.298 2484.27 224.963 2486.14C244.526 2488 269.233 2488 301.783 2488H302H1042H1042.22C1074.77 2488 1099.47 2488 1119.04 2486.14C1138.7 2484.27 1153.58 2480.49 1166.34 2472.67C1180.33 2464.1 1192.1 2452.33 1200.67 2438.34C1208.49 2425.58 1212.27 2410.7 1214.14 2391.04C1216 2371.48 1216 2346.77 1216 2314.22V2314V314V313.777C1216 281.23 1216 256.525 1214.14 236.963C1212.27 217.298 1208.49 202.418 1200.67 189.66C1192.1 175.666 1180.33 163.901 1166.34 155.325C1153.58 147.508 1138.7 143.73 1119.04 141.86C1099.47 140 1074.77 140 1042.22 140H1042H302H301.779C269.231 140 244.525 140 224.963 141.86C205.298 143.73 190.418 147.508 177.66 155.325C163.666 163.901 151.901 175.666 143.325 189.66Z" stroke="black" stroke-width="8"/>
<circle cx="208" cy="220" r="40" fill="black"/>
<path d="M1264 660H1266C1268.8 660 1270.2 660 1271.27 660.545C1272.21 661.024 1272.98 661.789 1273.46 662.73C1274 663.8 1274 665.2 1274 668V816C1274 818.8 1274 820.2 1273.46 821.27C1272.98 822.211 1272.21 822.976 1271.27 823.455C1270.2 824 1268.8 824 1266 824H1264V660Z" fill="black"/>
<path d="M1264 988H1266C1268.8 988 1270.2 988 1271.27 988.545C1272.21 989.024 1272.98 989.789 1273.46 990.73C1274 991.8 1274 993.2 1274 996V1308C1274 1310.8 1274 1312.2 1273.46 1313.27C1272.98 1314.21 1272.21 1314.98 1271.27 1315.46C1270.2 1316 1268.8 1316 1266 1316H1264V988Z" fill="black"/>
</svg>
