<svg width="1352" height="2618" viewBox="0 0 1352 2618" fill="none" xmlns="http://www.w3.org/2000/svg">
<path d="M84 335C84 285.821 84.0042 249.218 86.745 220.392C89.4802 191.625 94.9124 171.016 105.515 153.715C117.553 134.07 134.07 117.553 153.715 105.515C171.016 94.9124 191.625 89.4802 220.392 86.745C249.218 84.0042 285.821 84 335 84H1017C1066.18 84 1102.78 84.0042 1131.61 86.745C1160.38 89.4802 1180.98 94.9124 1198.28 105.515C1217.93 117.553 1234.45 134.07 1246.49 153.715C1257.09 171.016 1262.52 191.625 1265.26 220.392C1268 249.218 1268 285.821 1268 335V2276.2C1268 2326.69 1268 2364.27 1265.18 2393.87C1262.37 2423.42 1256.79 2444.59 1245.9 2462.37C1233.53 2482.56 1216.56 2499.53 1196.37 2511.9C1178.59 2522.79 1157.42 2528.37 1127.87 2531.18C1098.27 2534 1060.69 2534 1010.2 2534H341.8C291.312 2534 253.726 2534 224.125 2531.18C194.584 2528.37 173.407 2522.79 155.625 2511.9C135.442 2499.53 118.472 2482.56 106.104 2462.37C95.2071 2444.59 89.6276 2423.42 86.8187 2393.87C84.0042 2364.27 84 2326.69 84 2276.2V335ZM145.852 182.885C138.771 194.44 135.361 207.901 133.676 225.629C132 243.254 132 265.505 132 294.78V295V2295V2295.22C132 2331.04 132 2358.2 134.044 2379.7C136.098 2401.31 140.244 2417.6 148.799 2431.56C158.199 2446.9 171.096 2459.8 186.435 2469.2C200.395 2477.76 216.694 2481.9 238.298 2483.96C259.798 2486 286.96 2486 322.782 2486H323H1029H1029.22C1065.04 2486 1092.2 2486 1113.7 2483.96C1135.31 2481.9 1151.6 2477.76 1165.56 2469.2C1180.9 2459.8 1193.8 2446.9 1203.2 2431.56C1211.76 2417.6 1215.9 2401.31 1217.96 2379.7C1220 2358.2 1220 2331.04 1220 2295.22V2295V295V294.777C1220 265.504 1220 243.253 1218.32 225.629C1216.64 207.901 1213.23 194.44 1206.15 182.885C1198.4 170.237 1187.76 159.603 1175.11 151.852C1163.56 144.771 1150.1 141.361 1132.37 139.676C1114.75 138 1092.49 138 1063.22 138H1063H289H288.78C259.505 138 237.254 138 219.629 139.676C201.901 141.361 188.44 144.771 176.885 151.852C164.237 159.603 153.603 170.237 145.852 182.885Z" stroke="black" stroke-width="8"/>
<circle cx="212" cy="210" r="40" fill="black"/>
<path d="M1272 666H1273.5C1276.77 666 1278.41 666 1279.61 666.737C1280.29 667.149 1280.85 667.715 1281.26 668.388C1282 669.59 1282 671.227 1282 674.5V829.5C1282 832.773 1282 834.41 1281.26 835.612C1280.85 836.285 1280.29 836.851 1279.61 837.263C1278.41 838 1276.77 838 1273.5 838H1272V666Z" fill="black"/>
<path d="M1272 1010H1273.5C1276.77 1010 1278.41 1010 1279.61 1010.74C1280.29 1011.15 1280.85 1011.71 1281.26 1012.39C1282 1013.59 1282 1015.23 1282 1018.5V1345.5C1282 1348.77 1282 1350.41 1281.26 1351.61C1280.85 1352.29 1280.29 1352.85 1279.61 1353.26C1278.41 1354 1276.77 1354 1273.5 1354H1272V1010Z" fill="black"/>
</svg>
