<svg width="1328" height="2654" viewBox="0 0 1328 2654" fill="none" xmlns="http://www.w3.org/2000/svg">
<path d="M84 328.04C84 285.027 84.003 253.003 86.0435 227.611C88.0804 202.265 92.1282 183.872 100.029 168.059C114.742 138.615 138.615 114.742 168.059 100.029C183.872 92.1282 202.265 88.0804 227.611 86.0435C253.003 84.003 285.027 84 328.04 84H999.96C1042.97 84 1075 84.003 1100.39 86.0435C1125.74 88.0804 1144.13 92.1282 1159.94 100.029C1189.39 114.742 1213.26 138.615 1227.97 168.059C1235.87 183.872 1239.92 202.265 1241.96 227.611C1244 253.003 1244 285.027 1244 328.04V2325.96C1244 2368.97 1244 2401 1241.96 2426.39C1239.92 2451.74 1235.87 2470.13 1227.97 2485.94C1213.26 2515.39 1189.39 2539.26 1159.94 2553.97C1144.13 2561.87 1125.74 2565.92 1100.39 2567.96C1075 2570 1042.97 2570 999.96 2570H328.04C285.027 2570 253.003 2570 227.611 2567.96C202.265 2565.92 183.872 2561.87 168.059 2553.97C138.615 2539.26 114.742 2515.39 100.029 2485.94C92.1282 2470.13 88.0804 2451.74 86.0435 2426.39C84.003 2401 84 2368.97 84 2325.96V328.04ZM131.389 279.726C125.581 291.35 122.774 304.571 121.384 321.873C120 339.093 120 360.699 120 389.175V389.36V2338.64V2338.83C120 2367.3 120 2388.91 121.384 2406.13C122.774 2423.43 125.581 2436.65 131.389 2448.27C141.843 2469.19 158.805 2486.16 179.726 2496.61C191.35 2502.42 204.571 2505.23 221.873 2506.62C239.094 2508 260.701 2508 289.18 2508H289.36H1038.64H1038.82C1067.3 2508 1088.91 2508 1106.13 2506.62C1123.43 2505.23 1136.65 2502.42 1148.27 2496.61C1169.19 2486.16 1186.16 2469.19 1196.61 2448.27C1202.42 2436.65 1205.23 2423.43 1206.62 2406.13C1208 2388.91 1208 2367.3 1208 2338.83V2338.64V389.36V389.172C1208 360.698 1208 339.093 1206.62 321.873C1205.23 304.571 1202.42 291.35 1196.61 279.726C1186.16 258.805 1169.19 241.843 1148.27 231.389C1136.65 225.581 1123.43 222.774 1106.13 221.384C1088.91 220 1067.3 220 1038.83 220H1038.64H289.36H289.175C260.699 220 239.093 220 221.873 221.384C204.571 222.774 191.35 225.581 179.726 231.389C158.805 241.843 141.843 258.805 131.389 279.726Z" stroke="black" stroke-width="8"/>
<path d="M1248 690H1250C1252.8 690 1254.2 690 1255.27 690.545C1256.21 691.024 1256.98 691.789 1257.46 692.73C1258 693.8 1258 695.2 1258 698V832C1258 834.8 1258 836.2 1257.46 837.27C1256.98 838.211 1256.21 838.976 1255.27 839.455C1254.2 840 1252.8 840 1250 840H1248V690Z" fill="black"/>
<path d="M1248 1000H1250C1252.8 1000 1254.2 1000 1255.27 1000.54C1256.21 1001.02 1256.98 1001.79 1257.46 1002.73C1258 1003.8 1258 1005.2 1258 1008V1292C1258 1294.8 1258 1296.2 1257.46 1297.27C1256.98 1298.21 1256.21 1298.98 1255.27 1299.46C1254.2 1300 1252.8 1300 1250 1300H1248V1000Z" fill="black"/>
<circle cx="410" cy="172" r="32" fill="black"/>
<rect x="726" y="162" width="20" height="124" rx="10" transform="rotate(90 726 162)" fill="black"/>
</svg>
