<svg width="1408" height="2860" viewBox="0 0 1408 2860" fill="none" xmlns="http://www.w3.org/2000/svg">
<path d="M84 304C84 264.73 84.0031 235.519 85.8941 212.374C87.7813 189.276 91.5288 172.573 98.8231 158.257C111.862 132.667 132.667 111.862 158.257 98.8231C172.573 91.5288 189.276 87.7813 212.374 85.8941C235.519 84.0031 264.73 84 304 84H1104C1143.27 84 1172.48 84.0031 1195.63 85.8941C1218.72 87.7813 1235.43 91.5288 1249.74 98.8231C1275.33 111.862 1296.14 132.667 1309.18 158.257C1316.47 172.573 1320.22 189.276 1322.11 212.374C1324 235.519 1324 264.73 1324 304V2556C1324 2595.27 1324 2624.48 1322.11 2647.63C1320.22 2670.72 1316.47 2687.43 1309.18 2701.74C1296.14 2727.33 1275.33 2748.14 1249.74 2761.18C1235.43 2768.47 1218.72 2772.22 1195.63 2774.11C1172.48 2776 1143.27 2776 1104 2776H304C264.73 2776 235.519 2776 212.374 2774.11C189.276 2772.22 172.573 2768.47 158.257 2761.18C132.667 2748.14 111.862 2727.33 98.8231 2701.74C91.5288 2687.43 87.7813 2670.72 85.8941 2647.63C84.0031 2624.48 84 2595.27 84 2556V304ZM117.875 189.546C108.82 207.316 104.393 227.659 102.193 254.587C100 281.43 100 315.166 100 359.81V360V2488V2488.19C100 2532.83 100 2566.57 102.193 2593.41C104.393 2620.34 108.82 2640.68 117.875 2658.45C133.598 2689.31 158.687 2714.4 189.546 2730.12C207.316 2739.18 227.659 2743.61 254.587 2745.81C281.429 2748 315.164 2748 359.807 2748H360H1048H1048.19C1092.84 2748 1126.57 2748 1153.41 2745.81C1180.34 2743.61 1200.68 2739.18 1218.45 2730.12C1249.31 2714.4 1274.4 2689.31 1290.13 2658.45C1299.18 2640.68 1303.61 2620.34 1305.81 2593.41C1308 2566.57 1308 2532.83 1308 2488.19V2488V360V359.814C1308 315.168 1308 281.43 1305.81 254.587C1303.61 227.659 1299.18 207.316 1290.12 189.546C1274.4 158.687 1249.31 133.598 1218.45 117.875C1200.68 108.82 1180.34 104.393 1153.41 102.193C1126.57 100 1092.83 100 1048.19 100H1048H360H359.81C315.166 100 281.43 100 254.587 102.193C227.659 104.393 207.316 108.82 189.546 117.875C158.687 133.598 133.598 158.687 117.875 189.546Z" stroke="black" stroke-width="8"/>
<path d="M1328 1076H1329.6C1331.84 1076 1332.96 1076 1333.82 1076.44C1334.57 1076.82 1335.18 1077.43 1335.56 1078.18C1336 1079.04 1336 1080.16 1336 1082.4V1225.6C1336 1227.84 1336 1228.96 1335.56 1229.82C1335.18 1230.57 1334.57 1231.18 1333.82 1231.56C1332.96 1232 1331.84 1232 1329.6 1232H1328V1076Z" fill="black"/>
<path d="M1328 640H1329.6C1331.84 640 1332.96 640 1333.82 640.436C1334.57 640.819 1335.18 641.431 1335.56 642.184C1336 643.04 1336 644.16 1336 646.4V945.6C1336 947.84 1336 948.96 1335.56 949.816C1335.18 950.569 1334.57 951.181 1333.82 951.564C1332.96 952 1331.84 952 1329.6 952H1328V640Z" fill="black"/>
<rect x="192" y="144" width="308" height="108" rx="54" fill="black"/>
</svg>
