<svg width="1324" height="2580" viewBox="0 0 1324 2580" fill="none" xmlns="http://www.w3.org/2000/svg">
<path d="M121.82 214.244L125.056 216.595L121.82 214.244C119.714 217.143 118.824 220.479 118.405 224.344C118 228.086 118 232.766 118 238.569V238.8V2341.2V2341.43C118 2347.23 118 2351.91 118.405 2355.66C118.824 2359.52 119.714 2362.86 121.82 2365.76C123.053 2367.45 124.546 2368.95 126.244 2370.18C129.143 2372.29 132.479 2373.18 136.344 2373.59C140.087 2374 144.768 2374 150.574 2374H150.8H1173.2H1173.43C1179.23 2374 1183.91 2374 1187.66 2373.59C1191.52 2373.18 1194.86 2372.29 1197.76 2370.18C1199.45 2368.95 1200.95 2367.45 1202.18 2365.76C1204.29 2362.86 1205.18 2359.52 1205.59 2355.66C1206 2351.91 1206 2347.23 1206 2341.43V2341.2V238.8V238.569C1206 232.766 1206 228.086 1205.59 224.344C1205.18 220.479 1204.29 217.143 1202.18 214.244C1200.95 212.546 1199.45 211.053 1197.76 209.82C1194.86 207.714 1191.52 206.824 1187.66 206.405C1183.91 206 1179.23 206 1173.43 206H1173.2H150.8H150.569C144.766 206 140.086 206 136.344 206.405C132.479 206.824 129.143 207.714 126.244 209.82C124.546 211.053 123.053 212.546 121.82 214.244ZM84 350C84 293.665 84.0055 251.735 87.5577 218.949C91.1017 186.237 98.1378 163.103 111.884 144.183C120.889 131.789 131.789 120.889 144.183 111.884C163.103 98.1378 186.237 91.1017 218.949 87.5577C251.735 84.0055 293.665 84 350 84H974C1030.34 84 1072.27 84.0055 1105.05 87.5577C1137.76 91.1017 1160.9 98.1378 1179.82 111.884C1192.21 120.889 1203.11 131.789 1212.12 144.183C1225.86 163.103 1232.9 186.237 1236.44 218.949C1239.99 251.735 1240 293.665 1240 350V2230C1240 2286.33 1239.99 2328.27 1236.44 2361.05C1232.9 2393.76 1225.86 2416.9 1212.12 2435.82C1203.11 2448.21 1192.21 2459.11 1179.82 2468.12C1160.9 2481.86 1137.76 2488.9 1105.05 2492.44C1072.27 2495.99 1030.34 2496 974 2496H350C293.665 2496 251.735 2495.99 218.949 2492.44C186.237 2488.9 163.103 2481.86 144.183 2468.12C131.789 2459.11 120.889 2448.21 111.884 2435.82C98.1378 2416.9 91.1017 2393.76 87.5577 2361.05C84.0055 2328.27 84 2286.33 84 2230V350Z" stroke="black" stroke-width="8"/>
<path d="M70 409C70 405.25 70 403.375 70.9549 402.061C71.2633 401.637 71.6366 401.263 72.0611 400.955C73.3754 400 75.2503 400 79 400H80V540H79C75.2503 540 73.3754 540 72.0611 539.045C71.6366 538.737 71.2633 538.363 70.9549 537.939C70 536.625 70 534.75 70 531V409Z" fill="black"/>
<path d="M70 829C70 825.25 70 823.375 70.9549 822.061C71.2633 821.637 71.6366 821.263 72.0611 820.955C73.3754 820 75.2503 820 79 820H80V1120H79C75.2503 1120 73.3754 1120 72.0611 1119.05C71.6366 1118.74 71.2633 1118.36 70.9549 1117.94C70 1116.62 70 1114.75 70 1111V829Z" fill="black"/>
<path d="M1244 820H1245C1248.75 820 1250.62 820 1251.94 820.955C1252.36 821.263 1252.74 821.637 1253.05 822.061C1254 823.375 1254 825.25 1254 829V991C1254 994.75 1254 996.625 1253.05 997.939C1252.74 998.363 1252.36 998.737 1251.94 999.045C1250.62 1000 1248.75 1000 1245 1000H1244V820Z" fill="black"/>
<rect x="587" y="146" width="150" height="22" rx="11" fill="black"/>
<circle cx="381" cy="158" r="26" fill="black"/>
</svg>
