<svg width="1336" height="2584" viewBox="0 0 1336 2584" fill="none" xmlns="http://www.w3.org/2000/svg">
<mask id="path-1-inside-1" fill="white">
<path fill-rule="evenodd" clip-rule="evenodd" d="M104.828 133.588C80 167.76 80 216.507 80 314V2270C80 2367.49 80 2416.24 104.828 2450.41C112.846 2461.45 122.552 2471.15 133.588 2479.17C167.76 2504 216.507 2504 314 2504H1022C1119.49 2504 1168.24 2504 1202.41 2479.17C1213.45 2471.15 1223.15 2461.45 1231.17 2450.41C1256 2416.24 1256 2367.49 1256 2270V314C1256 216.507 1256 167.76 1231.17 133.588C1223.15 122.552 1213.45 112.846 1202.41 104.828C1168.24 80 1119.49 80 1022 80H314C216.507 80 167.76 80 133.588 104.828C122.552 112.846 112.846 122.552 104.828 133.588ZM573 208H763C796.137 208 823 181.137 823 148C823 136.963 831.941 128.013 842.975 128H1080C1124.8 128 1147.21 128 1164.32 136.719C1179.37 144.389 1191.61 156.628 1199.28 171.681C1208 188.794 1208 211.196 1208 256V2280C1208 2324.8 1208 2347.21 1199.28 2364.32C1191.61 2379.37 1179.37 2391.61 1164.32 2399.28C1147.21 2408 1124.8 2408 1080 2408H256C211.196 2408 188.794 2408 171.681 2399.28C156.628 2391.61 144.389 2379.37 136.719 2364.32C128 2347.21 128 2324.8 128 2280V256C128 211.196 128 188.794 136.719 171.681C144.389 156.628 156.628 144.389 171.681 136.719C188.794 128 211.196 128 256 128H493.025C504.059 128.013 513 136.963 513 148C513 181.137 539.863 208 573 208Z"/>
</mask>
<path d="M104.828 133.588L111.3 138.29L104.828 133.588ZM104.828 2450.41L111.3 2445.71L111.3 2445.71L104.828 2450.41ZM133.588 2479.17L138.29 2472.7H138.29L133.588 2479.17ZM1202.41 2479.17L1197.71 2472.7L1202.41 2479.17ZM1231.17 2450.41L1237.64 2455.11V2455.11L1231.17 2450.41ZM1231.17 133.588L1237.64 128.886V128.886L1231.17 133.588ZM1202.41 104.828L1207.11 98.3557V98.3556L1202.41 104.828ZM133.588 104.828L138.29 111.3L133.588 104.828ZM842.975 128V120L842.965 120L842.975 128ZM1164.32 136.719L1160.69 143.848L1164.32 136.719ZM1199.28 171.681L1206.41 168.049V168.049L1199.28 171.681ZM1199.28 2364.32L1206.41 2367.95L1199.28 2364.32ZM1164.32 2399.28L1167.95 2406.41L1164.32 2399.28ZM171.681 2399.28L168.049 2406.41L168.049 2406.41L171.681 2399.28ZM136.719 2364.32L129.591 2367.95H129.591L136.719 2364.32ZM136.719 171.681L129.591 168.049V168.049L136.719 171.681ZM171.681 136.719L168.049 129.591H168.049L171.681 136.719ZM493.025 128L493.035 120H493.025V128ZM88 314C88 265.075 88.011 229.024 91.0569 200.91C94.0867 172.946 100.042 153.785 111.3 138.29L98.3557 128.886C84.7858 147.563 78.3272 169.862 75.15 199.187C71.989 228.363 72 265.432 72 314H88ZM88 2270V314H72V2270H88ZM111.3 2445.71C100.042 2430.21 94.0867 2411.05 91.0569 2383.09C88.011 2354.98 88 2318.92 88 2270H72C72 2318.57 71.989 2355.64 75.15 2384.81C78.3272 2414.14 84.7858 2436.44 98.3556 2455.11L111.3 2445.71ZM138.29 2472.7C127.933 2465.18 118.825 2456.07 111.3 2445.71L98.3556 2455.11C106.867 2466.83 117.17 2477.13 128.886 2485.64L138.29 2472.7ZM314 2496C265.075 2496 229.024 2495.99 200.91 2492.94C172.946 2489.91 153.785 2483.96 138.29 2472.7L128.886 2485.64C147.563 2499.21 169.862 2505.67 199.187 2508.85C228.363 2512.01 265.432 2512 314 2512V2496ZM1022 2496H314V2512H1022V2496ZM1197.71 2472.7C1182.21 2483.96 1163.05 2489.91 1135.09 2492.94C1106.98 2495.99 1070.92 2496 1022 2496V2512C1070.57 2512 1107.64 2512.01 1136.81 2508.85C1166.14 2505.67 1188.44 2499.21 1207.11 2485.64L1197.71 2472.7ZM1224.7 2445.71C1217.18 2456.07 1208.07 2465.18 1197.71 2472.7L1207.11 2485.64C1218.83 2477.13 1229.13 2466.83 1237.64 2455.11L1224.7 2445.71ZM1248 2270C1248 2318.92 1247.99 2354.98 1244.94 2383.09C1241.91 2411.05 1235.96 2430.21 1224.7 2445.71L1237.64 2455.11C1251.21 2436.44 1257.67 2414.14 1260.85 2384.81C1264.01 2355.64 1264 2318.57 1264 2270H1248ZM1248 314V2270H1264V314H1248ZM1224.7 138.29C1235.96 153.785 1241.91 172.946 1244.94 200.91C1247.99 229.024 1248 265.075 1248 314H1264C1264 265.432 1264.01 228.363 1260.85 199.187C1257.67 169.862 1251.21 147.563 1237.64 128.886L1224.7 138.29ZM1197.71 111.3C1208.07 118.825 1217.18 127.933 1224.7 138.29L1237.64 128.886C1229.13 117.17 1218.83 106.867 1207.11 98.3557L1197.71 111.3ZM1022 88C1070.92 88 1106.98 88.011 1135.09 91.0569C1163.05 94.0867 1182.21 100.042 1197.71 111.3L1207.11 98.3556C1188.44 84.7858 1166.14 78.3272 1136.81 75.15C1107.64 71.989 1070.57 72 1022 72V88ZM314 88H1022V72H314V88ZM138.29 111.3C153.785 100.042 172.946 94.0867 200.91 91.0569C229.024 88.011 265.075 88 314 88V72C265.432 72 228.363 71.989 199.187 75.15C169.862 78.3272 147.563 84.7858 128.886 98.3557L138.29 111.3ZM111.3 138.29C118.825 127.933 127.933 118.825 138.29 111.3L128.886 98.3557C117.17 106.867 106.867 117.17 98.3557 128.886L111.3 138.29ZM763 200H573V216H763V200ZM815 148C815 176.719 791.719 200 763 200V216C800.555 216 831 185.555 831 148H815ZM842.965 120C827.517 120.019 815 132.548 815 148H831C831 141.378 836.365 136.008 842.985 136L842.965 120ZM1080 120H842.975V136H1080V120ZM1167.95 129.591C1158.08 124.561 1147.03 122.247 1133.2 121.117C1119.45 119.994 1102.27 120 1080 120V136C1102.53 136 1118.95 136.006 1131.89 137.063C1144.74 138.113 1153.45 140.158 1160.69 143.848L1167.95 129.591ZM1206.41 168.049C1197.97 151.491 1184.51 138.028 1167.95 129.591L1160.69 143.848C1174.23 150.75 1185.25 161.765 1192.15 175.313L1206.41 168.049ZM1216 256C1216 233.73 1216.01 216.546 1214.88 202.805C1213.75 188.97 1211.44 177.921 1206.41 168.049L1192.15 175.313C1195.84 182.553 1197.89 191.262 1198.94 204.108C1199.99 217.046 1200 233.466 1200 256H1216ZM1216 2280V256H1200V2280H1216ZM1206.41 2367.95C1211.44 2358.08 1213.75 2347.03 1214.88 2333.2C1216.01 2319.45 1216 2302.27 1216 2280H1200C1200 2302.53 1199.99 2318.95 1198.94 2331.89C1197.89 2344.74 1195.84 2353.45 1192.15 2360.69L1206.41 2367.95ZM1167.95 2406.41C1184.51 2397.97 1197.97 2384.51 1206.41 2367.95L1192.15 2360.69C1185.25 2374.24 1174.23 2385.25 1160.69 2392.15L1167.95 2406.41ZM1080 2416C1102.27 2416 1119.45 2416.01 1133.2 2414.88C1147.03 2413.75 1158.08 2411.44 1167.95 2406.41L1160.69 2392.15C1153.45 2395.84 1144.74 2397.89 1131.89 2398.94C1118.95 2399.99 1102.53 2400 1080 2400V2416ZM256 2416H1080V2400H256V2416ZM168.049 2406.41C177.921 2411.44 188.97 2413.75 202.805 2414.88C216.546 2416.01 233.73 2416 256 2416V2400C233.466 2400 217.046 2399.99 204.108 2398.94C191.262 2397.89 182.553 2395.84 175.313 2392.15L168.049 2406.41ZM129.591 2367.95C138.028 2384.51 151.491 2397.97 168.049 2406.41L175.313 2392.15C161.765 2385.25 150.75 2374.24 143.848 2360.69L129.591 2367.95ZM120 2280C120 2302.27 119.994 2319.45 121.117 2333.2C122.247 2347.03 124.561 2358.08 129.591 2367.95L143.848 2360.69C140.158 2353.45 138.113 2344.74 137.063 2331.89C136.006 2318.95 136 2302.53 136 2280H120ZM120 256V2280H136V256H120ZM129.591 168.049C124.561 177.921 122.247 188.97 121.117 202.805C119.994 216.546 120 233.73 120 256H136C136 233.466 136.006 217.046 137.063 204.108C138.113 191.262 140.158 182.553 143.848 175.313L129.591 168.049ZM168.049 129.591C151.491 138.028 138.028 151.491 129.591 168.049L143.848 175.313C150.75 161.765 161.765 150.75 175.313 143.848L168.049 129.591ZM256 120C233.73 120 216.546 119.994 202.805 121.117C188.97 122.247 177.921 124.561 168.049 129.591L175.313 143.848C182.553 140.158 191.262 138.113 204.108 137.063C217.046 136.006 233.466 136 256 136V120ZM493.025 120H256V136H493.025V120ZM521 148C521 132.548 508.483 120.019 493.035 120L493.015 136C499.635 136.008 505 141.378 505 148H521ZM573 200C544.281 200 521 176.719 521 148H505C505 185.555 535.445 216 573 216V200Z" fill="black" mask="url(#path-1-inside-1)"/>
<path d="M108.064 2448.06L104.828 2450.41L108.064 2448.06C96.228 2431.77 90.1468 2411.82 87.0802 2383.52C84.0055 2355.14 84 2318.83 84 2270V314C84 265.164 84.0055 228.859 87.0802 200.48C90.1468 172.175 96.2279 152.23 108.064 135.939L104.828 133.588L108.064 135.939C115.835 125.242 125.242 115.835 135.939 108.064L133.588 104.828L135.939 108.064C152.23 96.2279 172.175 90.1468 200.48 87.0802C228.859 84.0055 265.164 84 314 84H1022C1070.83 84 1107.14 84.0055 1135.52 87.0802C1163.82 90.1468 1183.77 96.228 1200.06 108.064L1202.41 104.828L1200.06 108.064C1210.76 115.835 1220.16 125.242 1227.93 135.939C1239.77 152.23 1245.85 172.175 1248.92 200.48C1251.99 228.859 1252 265.164 1252 314V2270C1252 2318.83 1251.99 2355.14 1248.92 2383.52C1245.85 2411.82 1239.77 2431.77 1227.93 2448.06L1231.17 2450.41L1227.93 2448.06C1220.16 2458.76 1210.76 2468.16 1200.06 2475.93L1202.41 2479.17L1200.06 2475.93C1183.77 2487.77 1163.82 2493.85 1135.52 2496.92C1107.14 2499.99 1070.83 2500 1022 2500H314C265.164 2500 228.859 2499.99 200.48 2496.92C172.175 2493.85 152.23 2487.77 135.939 2475.93C125.242 2468.16 115.835 2458.76 108.064 2448.06ZM842.975 124L842.97 124C829.729 124.016 819 134.755 819 148C819 178.928 793.928 204 763 204H573C542.072 204 517 178.928 517 148C517 134.755 506.271 124.016 493.03 124H493.025H256H255.813C233.569 124 216.634 124 203.131 125.103C189.543 126.213 179.079 128.461 169.865 133.155L171.681 136.72L169.865 133.155C154.059 141.209 141.209 154.059 133.155 169.865L136.72 171.681L133.155 169.865C128.461 179.079 126.213 189.543 125.103 203.131C124 216.634 124 233.569 124 255.813V256V2280V2280.19C124 2302.43 124 2319.37 125.103 2332.87C126.213 2346.46 128.46 2356.92 133.156 2366.14C141.209 2381.94 154.059 2394.79 169.865 2402.84C179.079 2407.54 189.543 2409.79 203.131 2410.9C216.633 2412 233.567 2412 255.809 2412H256H1080H1080.19C1102.43 2412 1119.37 2412 1132.87 2410.9C1146.46 2409.79 1156.92 2407.54 1166.14 2402.84C1181.94 2394.79 1194.79 2381.94 1202.84 2366.14C1207.54 2356.92 1209.79 2346.46 1210.9 2332.87C1212 2319.37 1212 2302.43 1212 2280.19V2280V256V255.809C1212 233.567 1212 216.633 1210.9 203.131C1209.79 189.543 1207.54 179.079 1202.84 169.865C1194.79 154.059 1181.94 141.209 1166.14 133.156L1164.32 136.72L1166.14 133.156C1156.92 128.46 1146.46 126.213 1132.87 125.103C1119.37 124 1102.43 124 1080.19 124H1080L842.975 124Z" stroke="black" stroke-width="8"/>
<path d="M1256 480H1261C1263.76 480 1266 482.239 1266 485V605C1266 607.761 1263.76 610 1261 610H1256V480Z" fill="black"/>
<path d="M1256 810H1261C1263.76 810 1266 812.239 1266 815V985C1266 987.761 1263.76 990 1261 990H1256V810Z" fill="black"/>
<path d="M70 815C70 812.239 72.2386 810 75 810H80V1110H75C72.2386 1110 70 1107.76 70 1105V815Z" fill="black"/>
<circle cx="759" cy="150" r="26" fill="black"/>
<rect x="629" y="137" width="78" height="26" rx="13" fill="black"/>
</svg>
