<svg width="1340" height="2636" viewBox="0 0 1340 2636" fill="none" xmlns="http://www.w3.org/2000/svg">
<path d="M801.089 126H801.072L801.055 126C760.303 126.348 740.428 149.105 722.925 169.146L722.769 169.324C707.244 187.101 693.999 201.996 670 201.996C646.001 201.996 632.756 187.101 617.231 169.324L617.075 169.146C599.572 149.105 579.698 126.348 538.945 126L538.928 126H538.911H290H289.812C261.968 126 240.832 126 223.994 127.376C207.072 128.758 194.138 131.55 182.785 137.335C163.216 147.306 147.306 163.216 137.335 182.785C131.55 194.138 128.758 207.072 127.376 223.994C126 240.832 126 261.968 126 289.812V290V2310V2310.19C126 2338.03 126 2359.17 127.376 2376.01C128.758 2392.93 131.55 2405.86 137.335 2417.22C147.306 2436.78 163.216 2452.69 182.785 2462.66C194.138 2468.45 207.072 2471.24 223.994 2472.62C240.832 2474 261.966 2474 289.808 2474H290H1050H1050.19C1078.03 2474 1099.17 2474 1116.01 2472.62C1132.93 2471.24 1145.86 2468.45 1157.21 2462.66C1176.78 2452.69 1192.69 2436.78 1202.66 2417.22C1208.45 2405.86 1211.24 2392.93 1212.62 2376.01C1214 2359.17 1214 2338.03 1214 2310.18V2310V290V289.815C1214 261.97 1214 240.833 1212.62 223.994C1211.24 207.072 1208.45 194.138 1202.66 182.785L1199.1 184.601L1202.66 182.785C1192.69 163.216 1176.78 147.306 1157.21 137.335C1145.86 131.55 1132.93 128.758 1116.01 127.376C1099.17 126 1078.03 126 1050.19 126H1050H801.089ZM84 320C84 277.93 84.0031 246.618 86.0303 221.806C88.0538 197.041 92.0737 179.103 99.913 163.717C113.911 136.246 136.246 113.911 163.717 99.913C179.103 92.0737 197.041 88.0538 221.806 86.0303C246.618 84.0031 277.93 84 320 84H1020C1062.07 84 1093.38 84.0031 1118.19 86.0303C1142.96 88.0538 1160.9 92.0737 1176.28 99.913C1203.75 113.911 1226.09 136.246 1240.09 163.717C1247.93 179.103 1251.95 197.041 1253.97 221.806C1256 246.618 1256 277.93 1256 320V2316C1256 2358.07 1256 2389.38 1253.97 2414.19C1251.95 2438.96 1247.93 2456.9 1240.09 2472.28C1226.09 2499.75 1203.75 2522.09 1176.28 2536.09C1160.9 2543.93 1142.96 2547.95 1118.19 2549.97C1093.38 2552 1062.07 2552 1020 2552H320C277.93 2552 246.618 2552 221.806 2549.97C197.041 2547.95 179.103 2543.93 163.717 2536.09C136.246 2522.09 113.911 2499.75 99.9131 2472.28C92.0737 2456.9 88.0538 2438.96 86.0303 2414.19C84.0031 2389.38 84 2358.07 84 2316V320Z" stroke="black" stroke-width="8"/>
<path d="M1260 490H1262C1264.8 490 1266.2 490 1267.27 490.545C1268.21 491.024 1268.98 491.789 1269.46 492.73C1270 493.8 1270 495.2 1270 498V622C1270 624.8 1270 626.2 1269.46 627.27C1268.98 628.211 1268.21 628.976 1267.27 629.455C1266.2 630 1264.8 630 1262 630H1260V490Z" fill="black"/>
<path d="M1260 920H1262C1264.8 920 1266.2 920 1267.27 920.545C1268.21 921.024 1268.98 921.789 1269.46 922.73C1270 923.8 1270 925.2 1270 928V1102C1270 1104.8 1270 1106.2 1269.46 1107.27C1268.98 1108.21 1268.21 1108.98 1267.27 1109.46C1266.2 1110 1264.8 1110 1262 1110H1260V920Z" fill="black"/>
<path d="M70 818C70 815.2 70 813.8 70.545 812.73C71.0243 811.789 71.7892 811.024 72.73 810.545C73.7996 810 75.1997 810 78 810H80V1110H78C75.1997 1110 73.7996 1110 72.73 1109.46C71.7892 1108.98 71.0243 1108.21 70.545 1107.27C70 1106.2 70 1104.8 70 1102V818Z" fill="black"/>
<circle cx="670" cy="154" r="24" fill="black"/>
</svg>
