<svg width="1684" height="3406" viewBox="0 0 1684 3406" fill="none" xmlns="http://www.w3.org/2000/svg">
<path fill-rule="evenodd" clip-rule="evenodd" d="M94.4634 136.417C84 156.952 84 183.835 84 237.6V3168.4C84 3222.17 84 3249.05 94.4634 3269.58C103.667 3287.65 118.353 3302.33 136.417 3311.54C156.952 3322 183.835 3322 237.6 3322H1446.4C1500.17 3322 1527.05 3322 1547.58 3311.54C1565.65 3302.33 1580.33 3287.65 1589.54 3269.58C1600 3249.05 1600 3222.17 1600 3168.4V237.6C1600 183.835 1600 156.952 1589.54 136.417C1580.33 118.353 1565.65 103.667 1547.58 94.4634C1527.05 84 1500.17 84 1446.4 84H237.6C183.835 84 156.952 84 136.417 94.4634C118.353 103.667 103.667 118.353 94.4634 136.417ZM122.796 276.024C118 285.437 118 297.758 118 322.4V3149.6C118 3174.24 118 3186.56 122.796 3195.98C127.014 3204.25 133.745 3210.99 142.024 3215.2C151.437 3220 163.758 3220 188.4 3220H1495.6C1520.24 3220 1532.56 3220 1541.98 3215.2C1550.25 3210.99 1556.99 3204.25 1561.2 3195.98C1566 3186.56 1566 3174.24 1566 3149.6V322.4C1566 297.758 1566 285.437 1561.2 276.024C1556.99 267.745 1550.25 261.014 1541.98 256.796C1532.56 252 1520.24 252 1495.6 252H188.4C163.758 252 151.437 252 142.024 256.796C133.745 261.014 127.014 267.745 122.796 276.024Z" stroke="black" stroke-width="8"/>
<rect x="736" y="162" width="212" height="28" rx="14" fill="black"/>
<circle cx="1126" cy="176" r="24" fill="black"/>
<circle cx="438" cy="176" r="28" fill="black"/>
<circle cx="346" cy="176" r="28" fill="black"/>
<path d="M70 582C70 579.239 72.2386 577 75 577H80V977H75C72.2386 977 70 974.761 70 972V582Z" fill="black"/>
<path d="M70 1182C70 1179.24 72.2386 1177 75 1177H80V1377H75C72.2386 1377 70 1374.76 70 1372V1182Z" fill="black"/>
<path d="M1604 1177H1609C1611.76 1177 1614 1174.76 1614 1172V982C1614 979.239 1611.76 977 1609 977H1604V1177Z" fill="black"/>
</svg>
