<svg width="1664" height="3396" viewBox="0 0 1664 3396" fill="none" xmlns="http://www.w3.org/2000/svg">
<path d="M121.515 299.705L125.079 301.521L121.515 299.705C114.64 313.198 111.303 328.601 109.648 348.859C108 369.032 108 394.368 108 427.811V428L108 3004V3004.19C108 3037.63 108 3062.97 109.648 3083.14C111.303 3103.4 114.64 3118.8 121.515 3132.3C133.403 3155.63 152.373 3174.6 175.706 3186.48C189.197 3193.36 204.601 3196.7 224.858 3198.35C245.031 3200 270.366 3200 303.807 3200H304H1360H1360.19C1393.64 3200 1418.97 3200 1439.14 3198.35C1459.4 3196.7 1474.8 3193.36 1488.3 3186.48C1511.63 3174.6 1530.6 3155.63 1542.48 3132.3C1549.36 3118.8 1552.7 3103.4 1554.35 3083.14C1556 3062.97 1556 3037.64 1556 3004.19V3004V428V427.807C1556 394.366 1556 369.031 1554.35 348.859C1552.7 328.601 1549.36 313.198 1542.48 299.705C1530.6 276.373 1511.63 257.403 1488.3 245.515C1474.8 238.64 1459.4 235.303 1439.14 233.648C1418.97 232 1393.63 232 1360.19 232H1360H304H303.811C270.368 232 245.032 232 224.859 233.648C204.601 235.303 189.198 238.64 175.705 245.515L177.521 249.079L175.705 245.515C152.373 257.403 133.403 276.373 121.515 299.705ZM1296 84C1346.47 84 1384.08 84.0032 1413.9 86.4391C1443.66 88.8713 1465.31 93.7087 1483.9 103.183C1517.02 120.056 1543.94 146.981 1560.82 180.098C1570.29 198.692 1575.13 220.334 1577.56 250.102C1580 279.917 1580 317.529 1580 368V3028C1580 3078.47 1580 3116.08 1577.56 3145.9C1575.13 3175.66 1570.29 3197.31 1560.82 3215.9C1543.94 3249.02 1517.02 3275.94 1483.9 3292.82C1465.31 3302.29 1443.66 3307.13 1413.9 3309.56C1384.08 3312 1346.47 3312 1296 3312H368C317.529 3312 279.917 3312 250.102 3309.56C220.334 3307.13 198.692 3302.29 180.098 3292.82C146.981 3275.94 120.056 3249.02 103.183 3215.9C93.7086 3197.31 88.8712 3175.66 86.4391 3145.9C84.0031 3116.08 84 3078.47 84 3028L84.0001 368C84.0001 317.529 84.0032 279.917 86.4392 250.102C88.8713 220.334 93.7088 198.692 103.183 180.098C120.057 146.981 146.981 120.057 180.098 103.183C198.692 93.7086 220.334 88.8712 250.102 86.4391C279.917 84.0031 317.529 84 368 84L1296 84Z" stroke="black" stroke-width="8"/>
<rect x="729" y="153" width="210" height="26" rx="13" fill="black"/>
<circle cx="1109" cy="166" r="30" fill="black"/>
<circle cx="1261" cy="166" r="22" fill="black"/>
<circle cx="587" cy="166" r="22" fill="black"/>
<circle cx="515" cy="166" r="22" fill="black"/>
<circle cx="408" cy="166" r="29" fill="black"/>
<circle cx="317" cy="166" r="22" fill="black"/>
<path d="M1584 940H1589C1591.76 940 1594 942.239 1594 945V1175C1594 1177.76 1591.76 1180 1589 1180H1584V940Z" fill="black"/>
<path d="M70 609C70 606.239 72.2386 604 75 604H80V1024H75C72.2386 1024 70 1021.76 70 1019V609Z" fill="black"/>
<path d="M70 1185C70 1182.24 72.2386 1180 75 1180H80V1420H75C72.2386 1420 70 1417.76 70 1415V1185Z" fill="black"/>
</svg>
