<svg width="1288" height="2522" viewBox="0 0 1288 2522" fill="none" xmlns="http://www.w3.org/2000/svg">
<path d="M84 164C84 144.088 84.0085 129.556 85.502 118.448C86.9801 107.454 89.8463 100.414 95.1299 95.1299C100.414 89.8463 107.454 86.9801 118.448 85.502C129.556 84.0085 144.088 84 164 84H1124C1143.91 84 1158.44 84.0085 1169.55 85.502C1180.55 86.9801 1187.59 89.8463 1192.87 95.1299C1198.15 100.414 1201.02 107.454 1202.5 118.448C1203.99 129.556 1204 144.088 1204 164V2358C1204 2377.91 1203.99 2392.44 1202.5 2403.55C1201.02 2414.55 1198.15 2421.59 1192.87 2426.87C1187.59 2432.15 1180.55 2435.02 1169.55 2436.5C1158.44 2437.99 1143.91 2438 1124 2438H164C144.088 2438 129.556 2437.99 118.448 2436.5C107.454 2435.02 100.414 2432.15 95.1299 2426.87C89.8463 2421.59 86.9801 2414.55 85.502 2403.55C84.0085 2392.44 84 2377.91 84 2358V164ZM110.544 116.544C104.991 122.098 102.438 129.197 101.207 138.354C99.9999 147.334 99.9999 158.868 100 173.69V174V2326V2326.31C99.9999 2341.13 99.9999 2352.67 101.207 2361.65C102.438 2370.8 104.991 2377.9 110.544 2383.46C116.098 2389.01 123.197 2391.56 132.354 2392.79C141.334 2394 152.867 2394 167.689 2394H168H1120H1120.31C1135.13 2394 1146.67 2394 1155.65 2392.79C1164.8 2391.56 1171.9 2389.01 1177.46 2383.46C1183.01 2377.9 1185.56 2370.8 1186.79 2361.65C1188 2352.67 1188 2341.13 1188 2326.31V2326V174V173.689C1188 158.867 1188 147.334 1186.79 138.354C1185.56 129.197 1183.01 122.098 1177.46 116.544C1171.9 110.991 1164.8 108.438 1155.65 107.207C1146.67 106 1135.13 106 1120.31 106H1120H168H167.69C152.868 106 141.334 106 132.354 107.207C123.197 108.438 116.098 110.991 110.544 116.544Z" stroke="black" stroke-width="8"/>
<circle cx="644" cy="170" r="30" fill="black"/>
<path d="M70 938C70 935.2 70 933.8 70.545 932.73C71.0243 931.789 71.7892 931.024 72.73 930.545C73.7996 930 75.1997 930 78 930H80V1078H78C75.1997 1078 73.7996 1078 72.73 1077.46C71.7892 1076.98 71.0243 1076.21 70.545 1075.27C70 1074.2 70 1072.8 70 1070V938Z" fill="black"/>
<path d="M70 518C70 515.2 70 513.8 70.545 512.73C71.0243 511.789 71.7892 511.024 72.73 510.545C73.7996 510 75.1997 510 78 510H80V790H78C75.1997 790 73.7996 790 72.73 789.455C71.7892 788.976 71.0243 788.211 70.545 787.27C70 786.2 70 784.8 70 782V518Z" fill="black"/>
</svg>
