<svg width="1644" height="3340" viewBox="0 0 1644 3340" fill="none" xmlns="http://www.w3.org/2000/svg">
<path d="M84 118.4C84 111.613 84.0031 106.764 84.3137 102.963C84.6205 99.2079 85.2071 96.8293 86.1799 94.9202C88.0973 91.1569 91.1569 88.0973 94.9202 86.1799C96.8293 85.2071 99.2079 84.6205 102.963 84.3137C106.764 84.0031 111.613 84 118.4 84H1525.6C1532.39 84 1537.24 84.0031 1541.04 84.3137C1544.79 84.6205 1547.17 85.2071 1549.08 86.1799C1552.84 88.0974 1555.9 91.157 1557.82 94.9202L1561.38 93.1042L1557.82 94.9202C1558.79 96.8293 1559.38 99.2079 1559.69 102.963C1560 106.764 1560 111.613 1560 118.4V3221.6C1560 3228.39 1560 3233.24 1559.69 3237.04C1559.38 3240.79 1558.79 3243.17 1557.82 3245.08C1555.9 3248.84 1552.84 3251.9 1549.08 3253.82C1547.17 3254.79 1544.79 3255.38 1541.04 3255.69C1537.24 3256 1532.39 3256 1525.6 3256H118.4C111.613 3256 106.764 3256 102.963 3255.69C99.2079 3255.38 96.8292 3254.79 94.9202 3253.82C91.157 3251.9 88.0974 3248.84 86.1799 3245.08C85.2072 3243.17 84.6205 3240.79 84.3137 3237.04C84.0031 3233.24 84 3228.39 84 3221.6V118.4ZM103.668 144.392C100.717 150.184 99.3414 156.696 98.6672 164.948C98 173.115 98 183.33 98 196.615V196.8V3131.2V3131.38C98 3144.67 98 3154.89 98.6672 3163.05C99.3414 3171.3 100.717 3177.82 103.668 3183.61C108.653 3193.39 116.608 3201.35 126.393 3206.33C132.184 3209.28 138.697 3210.66 146.948 3211.33C155.114 3212 165.328 3212 178.612 3212H178.8H1465.2H1465.39C1478.67 3212 1488.89 3212 1497.05 3211.33C1505.3 3210.66 1511.82 3209.28 1517.61 3206.33C1527.39 3201.35 1535.35 3193.39 1540.33 3183.61C1543.28 3177.82 1544.66 3171.3 1545.33 3163.05C1546 3154.88 1546 3144.67 1546 3131.38V3131.2V196.8V196.619C1546 183.332 1546 173.116 1545.33 164.948C1544.66 156.697 1543.28 150.184 1540.33 144.392C1535.35 134.608 1527.39 126.653 1517.61 121.668C1511.82 118.717 1505.3 117.341 1497.05 116.667C1488.89 116 1478.67 116 1465.38 116H1465.2H178.8H178.616C165.33 116 155.115 116 146.948 116.667C138.697 117.341 132.184 118.717 126.392 121.668C116.608 126.653 108.653 134.608 103.668 144.392Z" stroke="black" stroke-width="8"/>
<path d="M1564 720C1566.8 720 1568.2 720 1569.27 720.545C1570.21 721.024 1570.98 721.789 1571.46 722.73C1572 723.8 1572 725.2 1572 728V1082C1572 1084.8 1572 1086.2 1571.46 1087.27C1570.98 1088.21 1570.21 1088.98 1569.27 1089.46C1568.2 1090 1566.8 1090 1564 1090V720Z" fill="black"/>
<path d="M1564 1280C1566.8 1280 1568.2 1280 1569.27 1280.54C1570.21 1281.02 1570.98 1281.79 1571.46 1282.73C1572 1283.8 1572 1285.2 1572 1288V1462C1572 1464.8 1572 1466.2 1571.46 1467.27C1570.98 1468.21 1570.21 1468.98 1569.27 1469.46C1568.2 1470 1566.8 1470 1564 1470V1280Z" fill="black"/>
<circle cx="822" cy="182" r="32" fill="black"/>
</svg>
