<svg width="1684" height="3496" viewBox="0 0 1684 3496" fill="none" xmlns="http://www.w3.org/2000/svg">
<path d="M84 348.8C84 301.69 84.0031 266.597 86.2756 238.784C88.5442 211.017 93.0547 190.856 101.875 173.546C117.598 142.687 142.687 117.598 173.546 101.875C190.856 93.0547 211.017 88.5442 238.784 86.2756C266.597 84.0031 301.69 84 348.8 84H1335.2C1382.31 84 1417.4 84.0031 1445.22 86.2756C1472.98 88.5442 1493.14 93.0547 1510.45 101.875C1541.31 117.598 1566.4 142.687 1582.12 173.546C1590.95 190.856 1595.46 211.017 1597.72 238.784C1600 266.597 1600 301.69 1600 348.8V3147.2C1600 3194.31 1600 3229.4 1597.72 3257.22C1595.46 3284.98 1590.95 3305.14 1582.13 3322.45C1566.4 3353.31 1541.31 3378.4 1510.45 3394.13C1493.14 3402.95 1472.98 3407.46 1445.22 3409.72C1417.4 3412 1382.31 3412 1335.2 3412H348.8C301.69 3412 266.597 3412 238.784 3409.72C211.017 3407.46 190.856 3402.95 173.546 3394.13C142.687 3378.4 117.598 3353.31 101.875 3322.45C93.0547 3305.14 88.5442 3284.98 86.2756 3257.22C84.0031 3229.4 84 3194.31 84 3147.2V348.8ZM133.695 210.625C125.73 226.257 121.848 244.13 119.921 267.723C118 291.231 118 320.767 118 359.811V360V3112V3112.19C118 3151.23 118 3180.77 119.921 3204.28C121.848 3227.87 125.73 3245.74 133.695 3261.37C147.501 3288.47 169.53 3310.5 196.625 3324.3C212.257 3332.27 230.13 3336.15 253.723 3338.08C277.23 3340 306.765 3340 345.807 3340H346H1338H1338.19C1377.24 3340 1406.77 3340 1430.28 3338.08C1453.87 3336.15 1471.74 3332.27 1487.37 3324.3C1514.47 3310.5 1536.5 3288.47 1550.3 3261.37C1558.27 3245.74 1562.15 3227.87 1564.08 3204.28C1566 3180.77 1566 3151.23 1566 3112.19V3112V360V359.814C1566 320.769 1566 291.231 1564.08 267.723C1562.15 244.13 1558.27 226.257 1550.31 210.625C1536.5 183.53 1514.47 161.501 1487.37 147.695C1471.74 139.73 1453.87 135.848 1430.28 133.921C1406.77 132 1377.23 132 1338.19 132H1338H346H345.811C306.767 132 277.231 132 253.723 133.921C230.13 135.848 212.257 139.73 196.625 147.695C169.53 161.501 147.501 183.53 133.695 210.625Z" stroke="black" stroke-width="8"/>
<path d="M1604 720H1606C1608.8 720 1610.2 720 1611.27 720.545C1612.21 721.024 1612.98 721.789 1613.46 722.73C1614 723.8 1614 725.2 1614 728V1112C1614 1114.8 1614 1116.2 1613.46 1117.27C1612.98 1118.21 1612.21 1118.98 1611.27 1119.46C1610.2 1120 1608.8 1120 1606 1120H1604V720Z" fill="black"/>
<path d="M1604 1320H1606C1608.8 1320 1610.2 1320 1611.27 1320.54C1612.21 1321.02 1612.98 1321.79 1613.46 1322.73C1614 1323.8 1614 1325.2 1614 1328V1512C1614 1514.8 1614 1516.2 1613.46 1517.27C1612.98 1518.21 1612.21 1518.98 1611.27 1519.46C1610.2 1520 1608.8 1520 1606 1520H1604V1320Z" fill="black"/>
<circle cx="841" cy="200" r="34" fill="black"/>
</svg>
