<svg width="1312" height="2660" viewBox="0 0 1312 2660" fill="none" xmlns="http://www.w3.org/2000/svg">
<path d="M1232 550H1233.6C1235.84 550 1236.96 550 1237.82 550.436C1238.57 550.819 1239.18 551.431 1239.56 552.184C1240 553.04 1240 554.16 1240 556.4V847.6C1240 849.84 1240 850.96 1239.56 851.816C1239.18 852.569 1238.57 853.181 1237.82 853.564C1236.96 854 1235.84 854 1233.6 854H1232V550Z" fill="black"/>
<path d="M1232 990H1233.6C1235.84 990 1236.96 990 1237.82 990.436C1238.57 990.819 1239.18 991.431 1239.56 992.184C1240 993.04 1240 994.16 1240 996.4V1135.6C1240 1137.84 1240 1138.96 1239.56 1139.82C1239.18 1140.57 1238.57 1141.18 1237.82 1141.56C1236.96 1142 1235.84 1142 1233.6 1142H1232V990Z" fill="black"/>
<path d="M84 208C84 185.532 84.0031 168.921 85.0767 155.782C86.1464 142.689 88.259 133.395 92.2835 125.497C99.5699 111.196 111.196 99.5699 125.497 92.2835C133.395 88.259 142.689 86.1464 155.782 85.0767C168.921 84.0031 185.532 84 208 84H1104C1126.47 84 1143.08 84.0031 1156.22 85.0767C1169.31 86.1464 1178.6 88.259 1186.5 92.2835C1200.8 99.5699 1212.43 111.196 1219.72 125.497C1223.74 133.395 1225.85 142.689 1226.92 155.782C1228 168.921 1228 185.532 1228 208V2468C1228 2487.67 1228 2502.18 1227.06 2513.65C1226.13 2525.08 1224.29 2533.13 1220.81 2539.96C1214.48 2552.38 1204.38 2562.48 1191.96 2568.81C1185.13 2572.29 1177.08 2574.13 1165.65 2575.06C1154.18 2576 1139.67 2576 1120 2576H192C172.332 2576 157.822 2576 146.35 2575.06C134.925 2574.13 126.866 2572.29 120.037 2568.81C107.618 2562.48 97.5212 2552.38 91.1936 2539.96C87.714 2533.13 85.8739 2525.08 84.9404 2513.65C84.0031 2502.18 84 2487.67 84 2468V208ZM121.155 157.865C116.461 167.079 114.213 177.543 113.103 191.13C112 204.633 112 221.569 112 243.813V244V2388V2388.19C112 2410.43 112 2427.37 113.103 2440.87C114.213 2454.46 116.461 2464.92 121.155 2474.14C129.209 2489.94 142.059 2502.79 157.865 2510.84C167.079 2515.54 177.543 2517.79 191.13 2518.9C204.633 2520 221.567 2520 243.809 2520H244H1068H1068.19C1090.43 2520 1107.37 2520 1120.87 2518.9C1134.46 2517.79 1144.92 2515.54 1154.14 2510.84C1169.94 2502.79 1182.79 2489.94 1190.84 2474.14C1195.54 2464.92 1197.79 2454.46 1198.9 2440.87C1200 2427.37 1200 2410.43 1200 2388.18V2388V244V243.816C1200 221.571 1200 204.634 1198.9 191.13C1197.79 177.543 1195.54 167.079 1190.84 157.865C1182.79 142.059 1169.94 129.209 1154.14 121.155C1144.92 116.461 1134.46 114.213 1120.87 113.103C1107.37 112 1090.43 112 1068.19 112H1068H244H243.813C221.569 112 204.633 112 191.13 113.103C177.543 114.213 167.079 116.461 157.865 121.155C142.059 129.209 129.209 142.059 121.155 157.865Z" stroke="black" stroke-width="8"/>
<circle cx="656" cy="175" r="35" fill="black"/>
</svg>
